<?xml version="1.0" encoding="UTF-8" standalone="no"?>
<svg
   xmlns:dc="http://purl.org/dc/elements/1.1/"
   xmlns:cc="http://creativecommons.org/ns#"
   xmlns:rdf="http://www.w3.org/1999/02/22-rdf-syntax-ns#"
   xmlns:svg="http://www.w3.org/2000/svg"
   xmlns="http://www.w3.org/2000/svg"
   xmlns:sodipodi="http://sodipodi.sourceforge.net/DTD/sodipodi-0.dtd"
   xmlns:inkscape="http://www.inkscape.org/namespaces/inkscape"
   width="185"
   height="65"
   viewBox="0 0 185 65"
   fill="none"
   version="1.1"
   id="svg13"
   sodipodi:docname="logo_2.svg"
   inkscape:version="0.92.4 (5da689c313, 2019-01-14)">
  <metadata
     id="metadata17">
    <rdf:RDF>
      <cc:Work
         rdf:about="">
        <dc:format>image/svg+xml</dc:format>
        <dc:type
           rdf:resource="http://purl.org/dc/dcmitype/StillImage" />
      </cc:Work>
    </rdf:RDF>
  </metadata>
  <sodipodi:namedview
     pagecolor="#ffffff"
     bordercolor="#666666"
     borderopacity="1"
     objecttolerance="10"
     gridtolerance="10"
     guidetolerance="10"
     inkscape:pageopacity="0"
     inkscape:pageshadow="2"
     inkscape:window-width="2560"
     inkscape:window-height="1057"
     id="namedview15"
     showgrid="false"
     inkscape:zoom="0.61155181"
     inkscape:cx="-566.21641"
     inkscape:cy="-32.72354"
     inkscape:window-x="-8"
     inkscape:window-y="-8"
     inkscape:window-maximized="1"
     inkscape:current-layer="svg13" />
  <defs
     id="defs11">
    <linearGradient
       id="paint0_linear_1404_7"
       x1="18.2093"
       y1="18.1786"
       x2="45.3721"
       y2="51.9575"
       gradientUnits="userSpaceOnUse">
      <stop
         offset="0.424702"
         stop-color="#7FB432"
         id="stop6" />
      <stop
         offset="0.466538"
         stop-color="#EB9309"
         id="stop8" />
    </linearGradient>
  </defs>
  <style
     id="style244"
     type="text/css">
	.st0{fill:#E1BA36;}
	.st1{fill:#F5F5F5;}
	.st2{fill:#F0BF3C;}
	.st3{fill:#127CA7;}
	.st4{fill:#135B80;}
	.st5{fill:#117CA7;}
	.st6{fill:#125A7F;}
	.st7{fill:#117BA7;}
	.st8{fill:#145C81;}
	.st9{fill:#013652;}
</style>
  <g
     id="g318"
     transform="matrix(0.12362097,0,0,0.12362097,12.914284,7.331053)">
	<g
   id="g286">
		<g
   id="g284">
			<g
   id="g258">
				<path
   id="path246"
   d="m 69.6,58.9 c 1.8,0 3.3,-0.6 4.5,-1.8 1.2,-1.2 1.8,-2.7 1.8,-4.5 0,-1.7 -0.6,-3.1 -1.8,-4.4 -1.2,-1.2 -2.7,-1.8 -4.5,-1.8 -1.7,0 -3.1,0.6 -4.4,1.8 -1.2,1.2 -1.8,2.7 -1.8,4.4 0,1.8 0.6,3.3 1.8,4.5 1.3,1.2 2.8,1.8 4.4,1.8 z"
   class="st0"
   inkscape:connector-curvature="0"
   style="fill:#e1ba36" />

				<path
   id="path248"
   d="m 54.3,58.9 c 1.7,0 3.1,-0.6 4.4,-1.8 1.2,-1.2 1.8,-2.7 1.8,-4.5 0,-1.7 -0.6,-3.1 -1.8,-4.4 -1.2,-1.2 -2.7,-1.8 -4.4,-1.8 -1.7,0 -3.1,0.6 -4.4,1.8 -1.2,1.2 -1.8,2.7 -1.8,4.4 0,1.8 0.6,3.3 1.8,4.5 1.3,1.2 2.7,1.8 4.4,1.8 z"
   class="st0"
   inkscape:connector-curvature="0"
   style="fill:#e1ba36" />

				<path
   id="path250"
   d="m 226.2,145.6 c -1.7,0 -3.1,0.6 -4.4,1.8 -1.2,1.2 -1.8,2.7 -1.8,4.4 0,1.8 0.6,3.3 1.8,4.5 1.2,1.2 2.7,1.8 4.4,1.8 1.8,0 3.3,-0.6 4.5,-1.8 1.2,-1.2 1.8,-2.7 1.8,-4.5 0,-1.7 -0.6,-3.1 -1.8,-4.4 -1.2,-1.2 -2.7,-1.8 -4.5,-1.8 z"
   class="st0"
   inkscape:connector-curvature="0"
   style="fill:#e1ba36" />

				<path
   id="path252"
   d="m 210.9,145.6 c -1.7,0 -3.1,0.6 -4.4,1.8 -1.2,1.2 -1.8,2.7 -1.8,4.4 0,1.8 0.6,3.3 1.8,4.5 1.2,1.2 2.7,1.8 4.4,1.8 1.7,0 3.1,-0.6 4.4,-1.8 1.2,-1.2 1.8,-2.7 1.8,-4.5 0,-1.7 -0.6,-3.1 -1.8,-4.4 -1.2,-1.2 -2.7,-1.8 -4.4,-1.8 z"
   class="st0"
   inkscape:connector-curvature="0"
   style="fill:#e1ba36" />

				<path
   id="path254"
   d="m 733.8,145.6 c -1.7,0 -3.1,0.6 -4.4,1.8 -1.2,1.2 -1.8,2.7 -1.8,4.4 0,1.8 0.6,3.3 1.8,4.5 1.2,1.2 2.7,1.8 4.4,1.8 1.8,0 3.3,-0.6 4.5,-1.8 1.2,-1.2 1.8,-2.7 1.8,-4.5 0,-1.7 -0.6,-3.1 -1.8,-4.4 -1.2,-1.2 -2.7,-1.8 -4.5,-1.8 z"
   class="st0"
   inkscape:connector-curvature="0"
   style="fill:#e1ba36" />

				<path
   id="path256"
   d="m 764.4,82.4 c -5.5,-6.5 -13.5,-9.8 -23.9,-9.8 -6.8,0 -14,1.2 -21.8,3.7 v 8.5 C 727.8,83 734.6,82 739,82 c 7.3,0 12.8,2.1 16.6,6.3 3.5,3.8 5.2,9 5.2,15.6 v 14.7 c 0,3.2 -1.6,4.8 -4.8,4.8 h -131.5 -0.3 c -1.3,-0.1 -2.3,-0.7 -3,-1.8 -0.6,-0.8 -0.9,-1.9 -0.9,-3 V 95.7 c 0,-8.6 -3,-14.9 -9.1,-19 -4,-2.6 -9,-3.9 -15.1,-3.9 -8.4,0.2 -15.2,2.7 -20.4,7.6 -5.7,5.6 -8.6,13.5 -8.6,23.7 0,7.3 1.7,13.7 5.2,19.4 h -131.1 -0.9 -23 c 1,-6 3.4,-11.2 7.2,-15.6 3.7,-4.2 8.5,-7.6 14.3,-10 l 1.1,-3 c -2.9,-7.4 -7.8,-13.2 -14.8,-17.3 -5.5,-3.2 -11.2,-4.8 -17.2,-4.8 -6,0 -11.8,1.6 -17.3,4.8 -6.9,4.1 -11.9,9.9 -14.8,17.3 l 1.3,3 c 6.3,2.6 11.4,6.3 15.2,11 3.3,4.6 5.4,9.4 6.3,14.6 H 238.9 238 232.2 c 0.3,-1 0.4,-2 0.4,-3 V 74.2 h -10.8 v 44.5 c 0,1.4 -0.5,2.6 -1.5,3.5 -0.8,0.8 -1.9,1.3 -3.3,1.3 H 82.3 81.4 79.8 c -0.9,0 -1.8,-0.4 -2.5,-1.3 -0.8,-0.8 -1.3,-2 -1.3,-3.5 V 70.8 h -5.3 l -5.4,4.3 c -4.6,-2 -9.1,-3 -13.6,-3 -7.9,0 -14.5,2.7 -19.9,8.2 -6.1,6.1 -9.1,13.7 -9.1,22.9 0,7.9 2.1,14.6 6.3,20.3 5.1,6.9 12.2,10.4 21,10.4 6.3,0 12.2,-1.9 17.7,-5.8 2.3,3 5.4,4.4 9.2,4.4 h 4.4 0.9 138.8 c 3.6,0 6.6,-1.5 8.9,-4.4 h 0.4 l 3.7,4.4 h 4.1 0.9 161.5 c 2.6,0 5.1,-1.2 7.3,-3.7 h 0.4 c 2.4,2.4 4.8,3.7 7.3,3.7 h 24.8 0.9 130.7 l 3.5,-4.4 h 0.3 c 5.4,5.5 11.8,8.2 19.1,8.2 7,0 12.8,-2.7 17.3,-8.2 2.3,3 5.3,4.4 9.1,4.4 h 2.2 1 135.7 c 3.6,0 6.5,-1.5 8.7,-4.4 1.8,-2.2 2.7,-4.7 2.7,-7.6 v -16.1 c 0,-9.1 -2.3,-16.4 -7.1,-22 z M 65.2,121.1 c -5,2.5 -9.8,3.7 -14.3,3.7 -5.3,0 -9.5,-1.8 -12.7,-5.3 -3.2,-3.9 -4.8,-9.2 -4.8,-16 0,-5.7 1.6,-10.6 4.9,-14.7 4,-5.1 9.2,-7.6 15.6,-7.6 3.8,0 7.6,0.9 11.3,2.8 z M 408,118.3 h -0.4 c -2,-6.6 -5,-12.1 -8.9,-16.5 -3.1,-3.5 -6.9,-6.3 -11.3,-8.2 2.9,-4.4 6.2,-7.5 9.9,-9.4 3.1,-1.6 6.6,-2.4 10.5,-2.4 3.9,0 7.5,0.9 10.9,2.7 3.5,2 6.7,5.1 9.5,9.1 -4.2,1.9 -7.9,4.5 -11.1,7.9 -4,4.3 -7,9.9 -9.1,16.8 z m 201.5,2.2 c -4.5,4.5 -9.2,6.7 -14.1,6.7 -5,0 -9.1,-2.2 -12.4,-6.6 -3.5,-4.6 -5.2,-10.3 -5.2,-17.1 0,-6.5 1.6,-11.8 4.9,-15.8 3.3,-4 7.6,-6 13,-6 3.9,0 7,1.1 9.5,3.4 2.8,2.6 4.2,6.1 4.2,10.5 v 24.9 z"
   class="st0"
   inkscape:connector-curvature="0"
   style="fill:#e1ba36" />

			</g>

			<g
   id="g280">
				<path
   id="path260"
   d="m 160.4,227.5 c -9,0 -19.6,1.8 -31.6,5.3 v 17.7 c 11.7,-2.6 20.4,-3.8 26,-3.8 9.8,0 17.4,2.4 23,7.3 5.5,4.9 8.3,11.6 8.3,20.1 v 16.5 c 0,3 -1.5,4.6 -4.6,4.6 h -75.7 -1.3 -3.5 c 0.1,-1.3 0.2,-3.4 0.2,-6.2 v -17.6 c 0,-12.1 -3.8,-22.2 -11.5,-30.4 -8.7,-9 -20,-13.5 -34,-13.5 -5.5,0 -10.3,0.4 -14.5,1.1 v 17.7 c 2.1,-0.5 5.2,-0.7 9.3,-0.7 9,0.4 15.9,2.9 20.7,7.7 5.1,5.1 7.7,11.9 7.7,20.3 v 17 c 0,3 -1.5,4.6 -4.6,4.6 H 22.7 v 18.7 h 58.7 c 4.5,0 8.6,-1.5 12.3,-4.4 1.1,-1 2.1,-2 3.1,-3.1 h 0.5 l 6,7.5 h 1.1 1.3 82.9 c 5.7,0 10.6,-2.2 14.6,-6.6 3.4,-4 5.1,-8.5 5.1,-13.5 v -20.9 c 0,-12.6 -4.1,-23 -12.3,-31.5 -9,-9.3 -20.8,-13.9 -35.6,-13.9 z"
   class="st1"
   inkscape:connector-curvature="0"
   style="fill:#f5f5f5" />

				<path
   id="path262"
   d="m 358.1,213 c 3.3,0 6.1,-1.2 8.4,-3.5 2.3,-2.3 3.5,-5.1 3.5,-8.2 0,-3.3 -1.2,-6.1 -3.5,-8.4 -2.3,-2.3 -5.1,-3.5 -8.4,-3.5 -3.2,0 -5.9,1.2 -8.2,3.5 -2.3,2.3 -3.5,5.1 -3.5,8.4 0,3.2 1.2,5.9 3.5,8.2 2.3,2.4 5.1,3.5 8.2,3.5 z"
   class="st1"
   inkscape:connector-curvature="0"
   style="fill:#f5f5f5" />

				<path
   id="path264"
   d="m 330.3,213 c 3.3,0 6.1,-1.2 8.4,-3.5 2.3,-2.3 3.5,-5.1 3.5,-8.2 0,-3.3 -1.2,-6.1 -3.5,-8.4 -2.3,-2.3 -5.1,-3.5 -8.4,-3.5 -3.3,0 -6.1,1.2 -8.4,3.5 -2.3,2.3 -3.5,5.1 -3.5,8.4 0,3.2 1.2,5.9 3.5,8.2 2.3,2.4 5.1,3.5 8.4,3.5 z"
   class="st1"
   inkscape:connector-curvature="0"
   style="fill:#f5f5f5" />

				<path
   id="path266"
   d="m 408.6,290.6 c 0,1.2 -0.4,2.3 -1.3,3.1 -1,1 -2.1,1.5 -3.5,1.5 h -26.8 -1.3 -8 v -2.7 -62.7 H 345.6 V 290 c 0,1.5 -0.5,2.7 -1.6,3.7 -0.7,1 -2,1.5 -3.7,1.5 H 314 312.7 308 v -33.8 c 0,-11.7 -4.4,-20.7 -13.2,-27.1 -6.7,-4.5 -14.6,-6.8 -23.8,-6.8 -12.6,0 -22.9,3.9 -30.9,11.7 -7.7,7.7 -11.5,18.4 -11.5,32 0,11.5 3.2,21.1 9.7,28.9 7.7,9.1 18.2,13.7 31.6,13.7 h 15.2 c -1.8,16.7 -12.7,25.1 -32.7,25.1 -4.4,0 -9.1,-0.4 -14.1,-1.3 v 8 l 9.3,11.5 h 0.5 c 3.4,0.2 6,0.4 7.9,0.4 5.5,0 11.1,-0.7 16.8,-2 8.2,-2 15.2,-5.6 21,-10.8 8.4,-7.4 13,-17.7 13.9,-30.9 h 4.8 1.3 34 c 6.2,0 11.4,-2.5 15.5,-7.5 h 0.4 l 6.8,7.5 h 5.1 1.3 34 c 6.1,0 11,-2.3 14.8,-7 3.3,-3.7 4.9,-8 4.9,-13.2 V 182.8 h -22.1 v 107.8 z m -122.9,4.5 h -12.4 c -7,0 -12.4,-2.2 -16.5,-6.6 -4,-4.4 -6,-10.3 -6,-17.7 0,-7.7 1.8,-13.7 5.5,-18.1 3.7,-4.4 8.6,-6.6 14.8,-6.6 3.8,0 7.1,1.2 9.9,3.7 3.2,2.8 4.8,6.6 4.8,11.5 v 33.8 z"
   class="st1"
   inkscape:connector-curvature="0"
   style="fill:#f5f5f5" />

				<polygon
   id="polygon268"
   points="456,318.4 467,318.4 478.3,309.2 478.3,182.8 456,182.8 "
   class="st1"
   style="fill:#f5f5f5" />

				<path
   id="path270"
   d="m 768.3,290.6 c 0,3 -1.5,4.6 -4.6,4.6 h -34.4 c 0,-0.6 0,-1.6 0,-2.9 0.1,-1.5 0.2,-2.6 0.2,-3.3 v -48.8 h -22.3 v 50.5 c 0,3 -1.5,4.6 -4.6,4.6 H 668 c 0.1,-1.7 0.2,-4.3 0.2,-7.9 v -36.6 h -22.3 v 39.9 c 0,3 -1.5,4.6 -4.6,4.6 h -43.5 -1.3 -8 v -65.5 h -22.3 v 77.7 c 0,21 -10.8,31.5 -32.4,31.5 -3.7,0 -7.4,-0.3 -11.3,-0.9 v 7.9 l 9,11.2 c 2.6,0.1 4.9,0.2 7.1,0.2 12.8,0 23.6,-3.2 32.4,-9.7 10.6,-7.8 16.4,-19 17.4,-33.7 h 8.2 1.3 50.7 c 6.2,0 11.3,-2.5 15.4,-7.5 h 0.5 l 7,7.5 h 38.4 c 6.2,0 11.3,-2.5 15.4,-7.5 h 0.5 l 6.8,7.5 H 771 c 5.5,0 10.2,-2 14,-5.9 3.8,-4 5.8,-8.7 5.8,-14.2 v -64 h -22.3 v 60.7 z"
   class="st1"
   inkscape:connector-curvature="0"
   style="fill:#f5f5f5" />

				<path
   id="path272"
   d="m 832.8,137.5 c -2.9,0 -5.1,-1 -6.6,-3.1 -1.2,-1.3 -1.8,-3.2 -1.8,-5.7 0,-5.9 2.6,-8.8 7.9,-8.8 1.6,0 3.9,0.4 7,1.1 v -9.7 c -3.4,-1.1 -6.8,-1.6 -10.2,-1.6 -4.8,0 -8.7,1.6 -11.7,4.8 -3,3.2 -4.6,7.3 -4.6,12.3 0,3.9 1,7.4 3.1,10.6 h -7.3 v 9.7 H 841 l 4.2,-5.1 v -4.6 h -12.4 z"
   class="st1"
   inkscape:connector-curvature="0"
   style="fill:#f5f5f5" />

				<polygon
   id="polygon274"
   points="815.8,318.4 826.8,318.4 838.1,309.2 838.1,161.1 815.8,161.1 "
   class="st1"
   style="fill:#f5f5f5" />

				<path
   id="path276"
   d="m 154.9,184.2 c 7.8,-2.2 11.8,-6.3 11.8,-12.1 0,-2.9 -0.9,-5.2 -2.6,-7 -1.7,-1.8 -4,-2.7 -6.8,-2.7 -2.7,0 -5,0.9 -6.8,2.7 -1.8,1.8 -2.7,4.1 -2.7,6.9 0,2.7 1,5 3.1,7 l -12.1,3.3 v 2.9 l 2.3,2.9 z m 2.3,-16.6 c 2.4,0.2 3.6,1.6 3.6,4.3 0,2.3 -1.2,4.1 -3.6,5.3 -2.5,-0.8 -3.7,-2.6 -3.7,-5.5 0.1,-2.8 1.3,-4.1 3.7,-4.1 z"
   class="st1"
   inkscape:connector-curvature="0"
   style="fill:#f5f5f5" />

				<path
   id="path278"
   d="m 141.9,215.3 h 8.2 c 1.1,0 2.1,-0.3 2.9,-0.8 0.6,-0.3 1,-0.7 1.4,-1.2 h 0.1 l 1.9,2 h 6.4 c 1.8,0 3.2,-0.6 4.3,-1.9 1,-1.1 1.4,-2.4 1.4,-3.9 v -14 h -6.4 v 13.4 c 0,0.3 -0.1,0.6 -0.4,0.8 -0.2,0.2 -0.5,0.4 -0.8,0.4 h -5.3 v -11.8 h -6.4 v 10.5 c 0,0.4 -0.2,0.7 -0.5,1 -0.2,0.2 -0.6,0.4 -1,0.4 h -4 c -0.5,0 -0.8,-0.2 -0.8,-0.5 -0.2,-0.2 -0.4,-0.4 -0.4,-0.7 v -10.6 h -3.2 l -3.2,2.6 v 8.6 c 0,1.4 0.5,2.7 1.4,3.9 1.1,1.2 2.6,1.8 4.4,1.8 z"
   class="st1"
   inkscape:connector-curvature="0"
   style="fill:#f5f5f5" />

			</g>

			<path
   id="path282"
   d="m 838.1,79.2 c -1.7,-1.8 -4,-2.7 -6.8,-2.7 -2.7,0 -5,0.9 -6.8,2.7 -1.8,1.8 -2.7,4.1 -2.7,6.9 0,2.7 1,5 3.1,7 l -12.1,3.3 v 2.8 l 2.3,2.9 13.9,-3.9 c 7.9,-2.2 11.8,-6.3 11.8,-12.1 0,-2.7 -0.9,-5.1 -2.7,-6.9 z m -6.7,12.1 c -2.5,-0.8 -3.7,-2.6 -3.7,-5.5 0,-2.8 1.2,-4.2 3.7,-4.2 2.4,0.2 3.6,1.6 3.6,4.3 -0.1,2.4 -1.3,4.1 -3.6,5.4 z"
   class="st1"
   inkscape:connector-curvature="0"
   style="fill:#f5f5f5" />

		</g>

	</g>

	<g
   id="g316">
		<path
   id="path288"
   d="m 1326.2,115.1 2.9,-2.7 v 97.5 l -2.9,2.7 -91.6,86.1 c -0.1,0.1 -0.2,0.2 -0.3,0.3 l -96.6,90.7 c 0,0 0,0 0,0 -0.1,0.1 -0.2,0.2 -0.4,0.3 0,0 0,0 0,0 -0.1,0.1 -0.3,0.2 -0.4,0.2 0,0 0,0 0,0 -0.1,0.1 -0.3,0.1 -0.4,0.1 -0.1,0 -0.1,0 -0.2,0 -0.2,0 -0.4,0.1 -0.5,0.1 0,0 0,0 0,0 0,0 0,0 0,0 0,0 0,0 0,0 -0.2,0 -0.4,0 -0.5,-0.1 -0.1,0 -0.1,0 -0.2,0 -0.1,0 -0.3,-0.1 -0.4,-0.1 0,0 0,0 0,0 -0.1,-0.1 -0.3,-0.1 -0.4,-0.2 0,0 0,0 0,0 -0.1,-0.1 -0.3,-0.2 -0.4,-0.3 0,0 0,0 0,0 l -96.6,-90.8 c 0,0 0,0 0,0 0,0 -0.1,0 -0.1,-0.1 l -93.5,-87.9 -3.2,-3 -0.8,-0.8 v -100 l 0.9,-0.9 4.5,-4.2 88.8,-83.5 3.4,-3.2 v 0 l 1.9,-1.8 1.9,1.8 v 0 l 5.6,5.2 91.1,85.6 c 0,0 0,0 0,0 l 0.1,0.1 32.2,-30.3 -1.4,-0.6 -1.4,-0.7 -1.3,-0.8 -1.2,-0.9 -1.2,-1 -1.1,-1 -1,-1.1 -0.9,-1.2 -0.8,-1.2 -0.7,-1.3 -0.6,-1.4 -0.5,-1.4 -0.4,-1.5 -0.3,-1.5 -0.2,-1.5 -0.1,-1.6 v -1 l 0.1,-1 0.1,-1 0.2,-1 0.2,-1 0.3,-0.9 0.3,-0.9 0.4,-0.9 0.4,-0.9 0.5,-0.9 0.5,-0.8 0.6,-0.8 0.6,-0.8 0.6,-0.8 0.7,-0.7 0.7,-0.7 0.7,-0.7 0.8,-0.6 0.8,-0.6 0.8,-0.6 0.9,-0.5 0.9,-0.5 0.9,-0.4 0.9,-0.4 1,-0.4 1,-0.3 1,-0.3 1,-0.2 1.1,-0.2 1.1,-0.1 1.1,-0.1 h 1.1 l 1.7,0.1 1.6,0.2 1.6,0.3 1.5,0.4 1.5,0.5 1.4,0.6 1.4,0.7 1.3,0.8 1.3,0.9 1.2,0.9 1.1,1 1,1.1 0.9,1.2 0.8,1.2 0.8,1.3 0.7,1.3 34.4,-32.3 94.6,88.9 2.1,2 -2.9,2.7 -91.6,86.1 c 0.5,0.5 0.8,1.2 0.8,2 0,0.8 -0.3,1.6 -0.9,2.1 z"
   class="st2"
   inkscape:connector-curvature="0"
   style="fill:#f0bf3c" />

		<polygon
   id="polygon290"
   points="1114.2,260.7 1113.9,261.7 1113.7,262.6 1113.3,263.6 1112.9,264.5 1112.5,265.4 1112,266.3 1111.5,267.1 1111,267.9 1110.4,268.7 1109.7,269.5 1109.1,270.2 1108.4,270.9 1107.6,271.6 1107.6,271.6 1106.8,272.2 1106,272.8 1106,272.8 1105.2,273.3 1104.3,273.9 1104.3,273.9 1103.4,274.4 1102.5,274.8 1101.5,275.2 1100.6,275.6 1099.6,275.9 1098.6,276.1 1097.5,276.4 1096.5,276.5 1095.4,276.7 1094.3,276.8 1093.2,276.8 1091.6,276.7 1089.9,276.5 1088.3,276.3 1086.8,275.9 1085.3,275.4 1083.9,274.8 1082.5,274.1 1081.2,273.3 1079.9,272.4 1078.7,271.5 1077.6,270.5 1076.6,269.4 1075.7,268.2 1074.8,267 1074.1,265.7 1074.1,265.7 1073.4,264.3 1073.4,264.3 1039.1,296.6 942.4,205.8 942.4,205.8 942.4,108.3 1039,17.5 1039,114.9 1039.1,114.9 1135.7,205.8 1101.4,238.1 1101.4,238.1 1102.8,238.7 1104.2,239.4 1105.5,240.2 1106.7,241.1 1107.9,242 1109,243.1 1110,244.2 1110.9,245.3 1111.7,246.6 1112.5,247.9 1113.1,249.2 1113.6,250.6 1114.1,252.1 1114.4,253.6 1114.6,255.1 1114.6,256.7 1114.6,257.7 1114.5,258.7 1114.4,259.7 "
   class="st3"
   style="fill:#127ca7" />

		<polygon
   id="polygon292"
   points="1114.2,163.3 1113.9,164.2 1113.7,165.2 1113.3,166.1 1112.9,167 1112.5,167.9 1112,168.8 1111.5,169.6 1111,170.5 1110.4,171.2 1109.7,172 1109.1,172.7 1108.4,173.4 1107.6,174.1 1106.8,174.7 1106,175.3 1105.2,175.9 1104.3,176.4 1103.4,176.9 1102.5,177.3 1101.5,177.7 1100.6,178.1 1099.6,178.4 1098.6,178.7 1097.5,178.9 1096.5,179.1 1095.4,179.2 1094.3,179.3 1093.2,179.3 1091.6,179.3 1089.9,179.1 1088.3,178.8 1086.8,178.4 1085.3,177.9 1083.9,177.3 1082.5,176.6 1081.2,175.8 1079.9,175 1078.7,174 1077.6,173 1076.6,171.9 1075.7,170.7 1074.8,169.5 1074.1,168.2 1073.4,166.9 1073.4,166.9 1039.1,199.2 942.4,108.3 1039.1,17.5 1232.4,199.2 1224.6,206.5 1102.8,141.2 1104.2,141.9 1105.5,142.7 1106.7,143.6 1107.9,144.6 1109,145.6 1110,146.7 1110.9,147.9 1111.7,149.1 1112.5,150.4 1113.1,151.8 1113.6,153.2 1114.1,154.6 1114.4,156.1 1114.6,157.7 1114.6,159.2 1114.6,160.2 1114.5,161.3 1114.4,162.3 "
   class="st4"
   style="fill:#135b80" />

		<polygon
   id="polygon294"
   points="1198.1,231.5 1198.1,231.5 1201.1,228.6 1201.9,229.1 1202.7,229.6 1203.5,230.2 1204.3,230.8 1205,231.5 1204.3,230.8 1203.5,230.2 1202.7,229.6 1201.9,229 1201.1,228.6 1232.4,199.2 1232.4,296.6 1135.7,387.5 1135.7,290 "
   class="st5"
   style="fill:#117ca7" />

		<polygon
   id="polygon296"
   points="1073.4,231.5 1073.4,231.5 1070.4,228.6 1069.6,229.1 1068.8,229.6 1068,230.2 1067.2,230.8 1066.5,231.5 1067.2,230.8 1068,230.2 1068.8,229.6 1069.6,229 1070.4,228.6 1039.1,199.2 1039.1,296.6 1135.7,387.5 1135.7,290 "
   class="st6"
   style="fill:#125a7f" />

		<polygon
   id="polygon298"
   points="1200.9,165.6 1200.9,165.5 1202.2,164.8 1203.4,163.9 1204.6,162.9 1205.7,161.9 1206.7,160.8 1207.6,159.6 1208.4,158.4 1209.2,157.1 1209.8,155.7 1210.3,154.3 1210.8,152.9 1211.1,151.4 1211.2,149.8 1211.3,148.3 1211.3,147.2 1211.2,146.2 1211.1,145.2 1210.9,144.2 1210.6,143.3 1210.3,142.3 1210,141.4 1209.6,140.5 1209.2,139.6 1208.7,138.7 1208.2,137.9 1207.7,137 1207.1,136.2 1206.4,135.5 1205.7,134.8 1205,134.1 1204.3,133.4 1203.5,132.8 1202.7,132.2 1201.9,131.6 1201,131.1 1200.1,130.6 1199.2,130.2 1198.2,129.7 1197.3,129.4 1196.3,129.1 1195.3,128.8 1194.2,128.6 1193.2,128.4 1192.1,128.3 1191,128.2 1189.9,128.2 1188.2,128.2 1186.6,128.4 1185,128.7 1183.5,129.1 1182,129.6 1180.6,130.2 1179.2,130.9 1177.9,131.7 1176.6,132.5 1175.4,133.5 1174.3,134.5 1173.3,135.6 1172.4,136.8 1171.5,137.9 1171.5,138 1170.8,139.3 1170.1,140.6 1135.7,108.3 1137.9,106.3 1170.1,76 1168.7,75.4 1167.3,74.7 1166,73.9 1164.8,73 1163.6,72.1 1162.5,71 1161.5,69.9 1160.6,68.7 1159.7,67.5 1159,66.2 1158.4,64.8 1157.8,63.4 1157.4,62 1157.1,60.5 1156.9,59 1156.9,57.4 1156.9,56.4 1157,55.4 1157.1,54.4 1157.3,53.4 1157.5,52.4 1157.8,51.4 1158.2,50.5 1158.5,49.6 1159,48.7 1159.4,47.8 1160,47 1160.5,46.2 1161.1,45.4 1161.7,44.6 1162.4,43.9 1163.1,43.2 1163.9,42.5 1164.7,41.9 1165.5,41.3 1166.3,40.7 1167.2,40.2 1168.1,39.7 1169,39.3 1169.9,38.9 1170.9,38.5 1171.9,38.2 1172.9,37.9 1173.9,37.7 1175,37.5 1176.1,37.4 1177.2,37.3 1178.3,37.3 1179.9,37.4 1181.5,37.5 1183.1,37.8 1184.7,38.2 1186.2,38.7 1187.6,39.3 1189,40 1190.3,40.8 1191.6,41.7 1192.7,42.6 1193.8,43.6 1194.9,44.7 1195.8,45.9 1196.7,47.1 1197.4,48.4 1198.1,49.8 1232.4,17.5 1329.1,108.3 1234.5,197.2 1232.4,199.2 1198.1,166.9 1199.5,166.3 "
   class="st7"
   style="fill:#117ba7" />

		<g
   id="g306">
			<path
   id="path300"
   d="m 1327,106.3 -94.6,-88.9 -34.4,32.3 -0.7,-1.3 -0.8,-1.3 -0.8,-1.2 -0.9,-1.2 -1,-1.1 -1.1,-1 -1.2,-0.9 -1.3,-0.9 -1.2,-0.8 -1.4,-0.7 -1.4,-0.6 -1.5,-0.5 -1.5,-0.4 -1.6,-0.3 -1.6,-0.2 -1.7,-0.1 h -1.1 l -1.1,0.1 -1.1,0.1 -1.1,0.2 -1,0.2 -1,0.3 -1,0.3 -1,0.4 -0.9,0.4 -0.9,0.4 -0.9,0.5 -0.9,0.5 -0.8,0.6 -0.8,0.6 -0.8,0.6 -0.7,0.7 -0.7,0.7 -0.7,0.7 -0.6,0.8 -0.6,0.8 -0.6,0.9 -0.5,0.8 -0.5,0.9 -0.4,0.9 -0.4,0.9 -0.3,0.9 -0.3,0.9 -0.2,1 -0.2,1 -0.1,1 -0.1,1 v 1 l 0.1,1.6 0.2,1.5 0.3,1.5 0.4,1.5 0.5,1.4 0.6,1.4 0.7,1.3 0.8,1.2 0.9,1.2 1,1.1 1.1,1 1.2,1 1.2,0.9 1.3,0.8 1.4,0.7 1.4,0.6 -32.2,30.3 -0.1,-0.1 c -0.6,-0.5 -1.3,-0.8 -2,-0.8 v 6.9 l 7.1,6.7 h 8.5 l -11.4,-10.7 32.1,-30.2 c 0.6,-0.6 0.9,-1.3 0.9,-2.1 0,-1.2 -0.7,-2.3 -1.9,-2.7 -5.6,-2.1 -9.7,-6.8 -11,-12.4 -1.2,-5.4 0.4,-10.8 4.3,-14.9 4.3,-4.5 10.7,-6.5 17.2,-5.3 6.3,1.1 11.3,4.9 13.7,10.4 0.4,0.9 1.2,1.5 2.1,1.7 0.9,0.2 1.9,-0.1 2.6,-0.7 l 32.4,-30.4 92.4,86.8 -12.8,12 v 4 l 14.1,-13.3 2.9,-2.7 z"
   class="st2"
   inkscape:connector-curvature="0"
   style="fill:#f0bf3c" />

			<path
   id="path302"
   d="m 1232.4,199.2 1.5,-1.4 0.7,-0.6 42.7,-40.1 v 0 0 l 48.9,-46 2.9,-2.7 v 0 l -2.1,-2 -0.8,0.7 -93.8,88.1 v 0 l -0.7,0.6 -0.8,0.8 v 102.6 c 0.1,0.1 0.2,0.1 0.3,0.2 0.4,0.2 0.8,0.2 1.2,0.2 0.5,0 1,-0.1 1.5,-0.4 0.2,-0.1 0.4,-0.2 0.5,-0.4 l 0.2,-0.1 91.6,-86.1 2.9,-2.7 v -4 l -2.9,2.7 -92.3,86.7 -1.5,1.4 z"
   class="st2"
   inkscape:connector-curvature="0"
   style="fill:#f0bf3c" />

			<polygon
   id="polygon304"
   points="1232.4,199.2 1277.3,157 1277.3,157 1277.3,157 1329.1,108.3 1329.1,205.8 1232.4,296.6 "
   class="st8"
   style="fill:#145c81" />

		</g>

		<polygon
   id="polygon308"
   points="1329.1,108.3 1329.1,209.8 1326.2,212.5 1326.2,107.1 1327,106.3 "
   class="st2"
   style="fill:#f0bf3c" />

		<path
   id="path310"
   d="m 1234.5,197.2 -0.7,0.6 -1.5,1.4 v 0.3 l -1.5,-1.4 -32.9,-31.2 1.4,-0.6 1.4,-0.7 1.3,-0.8 1.2,-0.9 1.2,-1 1.1,-1 1,-1.1 0.9,-1.2 0.8,-1.2 0.7,-1.3 0.6,-1.4 0.5,-1.4 0.4,-1.4 0.3,-1.5 0.2,-1.5 0.1,-1.6 v -1 l -0.1,-1 -0.1,-1 -0.2,-1 -0.2,-1 -0.3,-1 -0.3,-0.9 -0.4,-0.9 -0.4,-0.9 -0.5,-0.9 -0.5,-0.8 -0.6,-0.8 -0.6,-0.8 -0.6,-0.8 -0.7,-0.7 -0.7,-0.7 -0.7,-0.7 -0.8,-0.6 -0.8,-0.6 -0.8,-0.6 -0.9,-0.5 -0.9,-0.5 -0.9,-0.4 -0.9,-0.4 -1,-0.4 -1,-0.3 -1,-0.3 -1,-0.2 -1.1,-0.2 -1.1,-0.1 -1.1,-0.1 h -1.1 l -1.7,0.1 -1.6,0.2 -1.6,0.3 -1.5,0.4 -1.5,0.5 -1.4,0.6 -1.4,0.7 -1.3,0.8 -1.3,0.9 -1.2,0.9 -1.1,1 -1,1.1 -0.9,1.2 -0.8,1.2 -2.5,7.6 -13.7,-7.2 L 1134,106 c 1.1,-0.7 2.6,-0.6 3.6,0.3 l 0.1,0.1 31.5,29.6 c 0,0 0,0 0,0 3.6,-5.3 9.4,-9.1 16.1,-10.2 8.4,-1.5 16.7,1.2 22.4,7.1 5.3,5.5 7.5,12.9 5.8,20.2 -1.4,6.1 -5.2,11.4 -10.6,14.7 0,0 0,0 0,0 l 29.3,27.5 2,1.9 c 0.3,-0.1 0.3,-0.1 0.3,0 z"
   class="st2"
   inkscape:connector-curvature="0"
   style="fill:#f0bf3c" />

		<polygon
   id="polygon312"
   points="1170.8,139.3 1171.5,138 1172.4,136.8 1173.3,135.6 1174.3,134.5 1175.4,133.5 1176.6,132.5 1177.9,131.7 1179.2,130.9 1180.6,130.2 1182,129.6 1183.5,129.1 1185,128.7 1186.6,128.4 1188.2,128.2 1189.9,128.2 1191,128.2 1192.1,128.3 1193.2,128.4 1194.2,128.6 1195.3,128.8 1196.3,129.1 1197.3,129.4 1198.2,129.7 1199.2,130.1 1200.1,130.6 1201,131.1 1201.9,131.6 1202.7,132.2 1203.5,132.8 1204.3,133.4 1205,134.1 1205.7,134.8 1206.4,135.5 1207.1,136.2 1207.7,137 1208.2,137.9 1208.7,138.7 1209.2,139.6 1209.6,140.5 1210,141.4 1210.3,142.3 1210.6,143.3 1210.9,144.2 1211.1,145.2 1211.2,146.2 1211.3,147.2 1211.3,148.3 1211.2,149.8 1211.1,151.4 1210.8,152.9 1210.3,154.3 1209.8,155.7 1209.2,157.1 1208.4,158.4 1207.6,159.6 1206.7,160.8 1205.7,161.9 1204.6,162.9 1203.4,163.9 1202.2,164.8 1200.9,165.6 1199.5,166.3 1198.1,166.9 1232.4,199.2 1135.7,290 1039.1,199.2 1135.7,108.3 1170.1,140.6 "
   class="st9"
   style="fill:#013652" />

		<rect
   id="rect314"
   height="102.7"
   width="2.9000001"
   class="st2"
   y="195.8"
   x="1231"
   style="fill:#f0bf3c" />

	</g>

</g>
</svg>
