<?xml version="1.0" encoding="UTF-8" standalone="no"?>
<!-- Generator: Adobe Illustrator 26.1.0, SVG Export Plug-In . SVG Version: 6.00 Build 0)  -->

<svg
   xmlns:dc="http://purl.org/dc/elements/1.1/"
   xmlns:cc="http://creativecommons.org/ns#"
   xmlns:rdf="http://www.w3.org/1999/02/22-rdf-syntax-ns#"
   xmlns:svg="http://www.w3.org/2000/svg"
   xmlns="http://www.w3.org/2000/svg"
   xmlns:sodipodi="http://sodipodi.sourceforge.net/DTD/sodipodi-0.dtd"
   xmlns:inkscape="http://www.inkscape.org/namespaces/inkscape"
   version="1.1"
   id="Layer_1"
   x="0px"
   y="0px"
   viewBox="0 0 16 16"
   xml:space="preserve"
   sodipodi:docname="icon 3.svg"
   width="40"
   height="40"
   inkscape:version="0.92.4 (5da689c313, 2019-01-14)"><metadata
   id="metadata14"><rdf:RDF><cc:Work
       rdf:about=""><dc:format>image/svg+xml</dc:format><dc:type
         rdf:resource="http://purl.org/dc/dcmitype/StillImage" /><dc:title></dc:title></cc:Work></rdf:RDF></metadata><defs
   id="defs12" /><sodipodi:namedview
   pagecolor="#ffffff"
   bordercolor="#666666"
   borderopacity="1"
   objecttolerance="10"
   gridtolerance="10"
   guidetolerance="10"
   inkscape:pageopacity="0"
   inkscape:pageshadow="2"
   inkscape:window-width="2560"
   inkscape:window-height="1057"
   id="namedview10"
   showgrid="false"
   scale-x="0.4"
   inkscape:zoom="5.9"
   inkscape:cx="-1.3559322"
   inkscape:cy="20"
   inkscape:window-x="-8"
   inkscape:window-y="-8"
   inkscape:window-maximized="1"
   inkscape:current-layer="Layer_1" />
<style
   type="text/css"
   id="style2">
	.st0{fill:#1C7AA3;}
</style>
<g
   id="a">
</g>
<g
   id="b"
   transform="matrix(0.40695812,0,0,0.40695812,-0.14516716,-0.14930684)">
	<g
   id="c">
		<path
   class="st0"
   d="M 24.5,12.6 32,5.1 c -0.2,0 -0.3,0 -0.4,0 -1.9,0 -3.8,0 -5.7,0 C 24.8,5.1 24,4.5 23.8,3.4 23.6,2.3 24.3,1.2 25.5,1 c 0.2,0 0.3,0 0.5,0 3.6,0 7.3,0 10.9,0 0.2,0 0.5,0 0.7,0.1 C 38.5,1.3 39,2 39,3 c 0,3.7 0,7.5 0,11.2 0,1 -0.5,1.7 -1.3,2 -0.8,0.3 -1.7,0.1 -2.3,-0.5 -0.4,-0.4 -0.5,-1 -0.5,-1.5 0,-1.9 0,-3.8 0,-5.7 0,-0.1 0,-0.3 0,-0.4 l -7.4,7.4 c 2.6,3.7 3.5,7.8 2.5,12.3 -0.8,3.5 -2.7,6.4 -5.7,8.5 -6.1,4.3 -14.2,3.5 -19.4,-2 C 0,29.1 -0.3,20.7 4.3,15.1 9,9.1 18,7.7 24.5,12.6 Z M 15.8,35 C 21.7,35 26.4,30.3 26.5,24.4 26.5,18.5 21.8,13.7 15.9,13.7 10,13.7 5.2,18.4 5.2,24.3 5.1,30.2 9.9,34.9 15.8,35 Z"
   id="path5"
   inkscape:connector-curvature="0"
   style="fill:#1c7aa3" />
	</g>
</g>
</svg>