<?xml version="1.0" encoding="UTF-8" standalone="no"?>
<!-- Generator: Adobe Illustrator 26.1.0, SVG Export Plug-In . SVG Version: 6.00 Build 0)  -->

<svg
   xmlns:dc="http://purl.org/dc/elements/1.1/"
   xmlns:cc="http://creativecommons.org/ns#"
   xmlns:rdf="http://www.w3.org/1999/02/22-rdf-syntax-ns#"
   xmlns:svg="http://www.w3.org/2000/svg"
   xmlns="http://www.w3.org/2000/svg"
   xmlns:sodipodi="http://sodipodi.sourceforge.net/DTD/sodipodi-0.dtd"
   xmlns:inkscape="http://www.inkscape.org/namespaces/inkscape"
   version="1.1"
   id="Layer_1"
   x="0px"
   y="0px"
   viewBox="0 0 16 16"
   xml:space="preserve"
   sodipodi:docname="icon 1.svg"
   width="40"
   height="40"
   inkscape:version="0.92.4 (5da689c313, 2019-01-14)"><metadata
   id="metadata20"><rdf:RDF><cc:Work
       rdf:about=""><dc:format>image/svg+xml</dc:format><dc:type
         rdf:resource="http://purl.org/dc/dcmitype/StillImage" /><dc:title></dc:title></cc:Work></rdf:RDF></metadata><defs
   id="defs18" /><sodipodi:namedview
   pagecolor="#ffffff"
   bordercolor="#666666"
   borderopacity="1"
   objecttolerance="10"
   gridtolerance="10"
   guidetolerance="10"
   inkscape:pageopacity="0"
   inkscape:pageshadow="2"
   inkscape:window-width="2560"
   inkscape:window-height="1057"
   id="namedview16"
   showgrid="false"
   scale-x="0.4"
   inkscape:zoom="5.9"
   inkscape:cx="-1.3559322"
   inkscape:cy="20"
   inkscape:window-x="-8"
   inkscape:window-y="-8"
   inkscape:window-maximized="1"
   inkscape:current-layer="Layer_1" />
<style
   type="text/css"
   id="style2">
	.st0{fill:#1C7AA3;}
	.st1{fill:#E1BA36;}
</style>
<g
   id="g13"
   transform="matrix(0.38826831,0,0,0.38826831,0.24570705,0.23126553)">
	<g
   id="a">
	</g>
	<g
   id="b">
		<g
   id="c">
			<g
   id="g9">
				<path
   class="st0"
   d="m 21.7,39.6 c -0.2,-0.1 -0.4,-0.1 -0.6,-0.2 -1.1,-0.5 -1.8,-1.3 -1.9,-2.6 -0.1,-0.7 0,-1.3 0,-2.1 h -6.1 v -4.2 c 1.4,-0.1 2.6,-0.5 3.5,-1.5 1,-0.9 1.5,-2.1 1.7,-3.4 h 6 v -6.1 c 0.3,-0.1 0.5,-0.1 0.7,-0.1 1.5,-0.4 2.7,-1.2 3.4,-2.6 0.1,-0.2 0.3,-0.3 0.5,-0.3 0.7,0 1.4,0 2.2,0 v 6.1 c 0.7,0 1.4,0 2,0 1.4,0 2.6,1.1 2.8,2.5 0.3,1.9 -1,3.5 -3,3.6 -0.6,0 -1.2,0 -1.8,0 v 6.1 H 25 c 0,0.5 0,1 0,1.5 0,1.8 -0.8,2.8 -2.5,3.3 0,0 0,0 -0.1,0 z"
   id="path5"
   inkscape:connector-curvature="0"
   style="fill:#1c7aa3" />
				<path
   class="st1"
   d="m 22.1,5.2 v 6 c 0.2,0 0.3,0 0.4,0 0.6,0 1.2,0 1.8,0.1 1.6,0.2 2.7,1.6 2.6,3.2 -0.1,1.6 -1.4,2.8 -2.9,2.8 -0.6,0 -1.2,0 -1.9,0 v 6.1 H 16 c 0,0.3 0,0.6 0,0.9 0,0.5 0,1 0,1.5 -0.3,1.6 -1.6,2.6 -3.2,2.5 -1.6,-0.1 -2.7,-1.4 -2.8,-3 0,-0.6 0,-1.2 0,-1.9 H 4 v -6.1 c 0.5,0 0.9,0 1.4,0 0.4,0 0.9,0 1.3,-0.1 1.5,-0.4 2.3,-1.8 2.1,-3.4 -0.2,-1.4 -1.4,-2.5 -3,-2.6 -0.6,0 -1.2,0 -1.8,0 v -6 h 6 C 10,4.6 10,4 10,3.4 10,2.1 10.8,1 12,0.6 c 1.9,-0.7 4,0.7 4.1,2.7 0,0.6 0,1.2 0,1.9 z"
   id="path7"
   inkscape:connector-curvature="0"
   style="fill:#e1ba36" />
			</g>
		</g>
	</g>
</g>
</svg>