<?xml version="1.0" encoding="UTF-8" standalone="no"?>
<!-- Generator: Adobe Illustrator 26.1.0, SVG Export Plug-In . SVG Version: 6.00 Build 0)  -->

<svg
   xmlns:dc="http://purl.org/dc/elements/1.1/"
   xmlns:cc="http://creativecommons.org/ns#"
   xmlns:rdf="http://www.w3.org/1999/02/22-rdf-syntax-ns#"
   xmlns:svg="http://www.w3.org/2000/svg"
   xmlns="http://www.w3.org/2000/svg"
   xmlns:sodipodi="http://sodipodi.sourceforge.net/DTD/sodipodi-0.dtd"
   xmlns:inkscape="http://www.inkscape.org/namespaces/inkscape"
   version="1.1"
   id="Layer_1"
   x="0px"
   y="0px"
   viewBox="0 0 16 16"
   xml:space="preserve"
   sodipodi:docname="icon 2.svg"
   width="40"
   height="40"
   inkscape:version="0.92.4 (5da689c313, 2019-01-14)"><metadata
   id="metadata22"><rdf:RDF><cc:Work
       rdf:about=""><dc:format>image/svg+xml</dc:format><dc:type
         rdf:resource="http://purl.org/dc/dcmitype/StillImage" /><dc:title></dc:title></cc:Work></rdf:RDF></metadata><defs
   id="defs20" /><sodipodi:namedview
   pagecolor="#ffffff"
   bordercolor="#666666"
   borderopacity="1"
   objecttolerance="10"
   gridtolerance="10"
   guidetolerance="10"
   inkscape:pageopacity="0"
   inkscape:pageshadow="2"
   inkscape:window-width="2560"
   inkscape:window-height="1057"
   id="namedview18"
   showgrid="false"
   scale-x="0.4"
   inkscape:zoom="5.9"
   inkscape:cx="-1.3559322"
   inkscape:cy="20"
   inkscape:window-x="-8"
   inkscape:window-y="-8"
   inkscape:window-maximized="1"
   inkscape:current-layer="Layer_1" />
<style
   type="text/css"
   id="style2">
	.st0{fill:#1C7AA3;}
	.st1{fill:#E1BA36;}
</style>
<g
   id="a">
</g>
<g
   id="b"
   transform="matrix(0.39775251,0,0,0.39775251,0.06845528,0.0598655)">
	<g
   id="c">
		<g
   id="g13">
			<path
   class="st0"
   d="m 0.6,17.6 v -2 C 0.6,15.5 0.7,15.4 0.7,15.3 0.8,13.4 1.3,11.6 2.2,9.9 4.5,5 8.3,2 13.5,0.9 c 0.7,-0.1 1.3,-0.2 2,-0.3 h 2.1 c 0.3,0 0.6,0.1 0.9,0.1 5.3,0.8 9.2,3.5 11.9,8 0.2,0.3 0.4,0.6 0.8,0.8 8.4,4.6 10.8,15.7 5,23.4 -0.2,0.3 -0.5,0.6 -0.7,0.8 1.1,1.1 2.1,2.2 3.2,3.3 0.1,0.1 0.1,0.1 0.2,0.2 0.4,0.4 0.5,0.8 0.3,1.3 -0.2,0.5 -0.6,0.7 -1.1,0.7 -4,0 -7.9,0.1 -11.9,0.1 -1.5,0 -3.1,0.1 -4.6,-0.1 -4.7,-0.5 -8.4,-2.7 -11.2,-6.5 -0.2,-0.2 -0.3,-0.3 -0.6,-0.3 -2.6,0 -5.2,0 -7.8,0 -0.7,0 -1.2,-0.2 -1.5,-0.9 V 31 c 0.2,-0.3 0.4,-0.6 0.7,-0.8 1,-1 2,-1.9 2.9,-2.9 C 4.2,27.2 4.3,27.1 4.4,27 4.3,26.9 4.3,26.8 4.2,26.8 2.5,24.8 1.4,22.5 0.9,19.9 0.8,19.1 0.7,18.3 0.6,17.6 Z m 4,12.5 c 0.1,0 0.2,0 0.2,0 3.1,0 6.2,0 9.4,0.1 1.8,0 3.6,0 5.4,-0.4 C 26.8,28.2 31.4,21 29.9,13.8 28.4,6.5 21.5,1.8 14.1,3.1 7.9,4.2 3.1,9.6 2.9,15.9 2.7,19.8 4,23.1 6.7,26 c 0.8,0.8 0.7,1.3 0,2.1 -0.7,0.7 -1.4,1.4 -2.1,2 z m 30.8,7 C 34.7,36.3 34,35.6 33.3,35 32.6,34.3 32.5,33.7 33.2,33 36,30 37.3,26.5 37,22.4 36.7,18.7 35.1,15.7 32.3,13.2 32.2,13.1 32.2,13.1 32.1,13 c 0,0.1 0,0.2 0,0.3 0.4,1.8 0.5,3.6 0.2,5.4 -1,6.3 -4.5,10.6 -10.5,12.9 -2.1,0.8 -4.3,1 -6.5,0.9 -0.7,0 -1.3,0 -2,0 l -0.1,0.1 c 0.5,0.5 1,1 1.6,1.4 2.6,2.1 5.7,3.1 9,3.1 2.5,0 5,0 7.6,0 1.3,0 2.7,0 4,0 z"
   id="path5"
   inkscape:connector-curvature="0"
   style="fill:#1c7aa3" />
			<path
   class="st1"
   d="m 16.5,13.2 c -2.2,0 -4.5,0 -6.7,0 -0.9,0 -1.5,-0.8 -1.1,-1.6 0.2,-0.5 0.6,-0.7 1.1,-0.7 2.6,0 5.2,0 7.8,0 1.9,0 3.8,0 5.7,0 0.5,0 0.8,0.2 1.1,0.6 0.2,0.4 0.2,0.8 0,1.1 -0.2,0.4 -0.6,0.6 -1.1,0.6 -2.3,0 -4.5,0 -6.8,0 z"
   id="path7"
   inkscape:connector-curvature="0"
   style="fill:#e1ba36" />
			<path
   class="st1"
   d="m 16.6,15.5 c 2.2,0 4.5,0 6.7,0 0.9,0 1.5,0.8 1.1,1.6 -0.2,0.5 -0.6,0.7 -1.1,0.7 -2.3,0 -4.7,0 -7,0 -2.1,0 -4.3,0 -6.4,0 C 9,17.8 8.5,17 8.8,16.2 9,15.7 9.4,15.5 10,15.5 c 2.1,0 4.4,0 6.6,0 z"
   id="path9"
   inkscape:connector-curvature="0"
   style="fill:#e1ba36" />
			<path
   class="st1"
   d="m 16.6,20 c 2.2,0 4.5,0 6.7,0 0.9,0 1.5,0.8 1.1,1.6 -0.2,0.5 -0.6,0.7 -1.1,0.7 -2.3,0 -4.5,0 -6.8,0 -2.2,0 -4.4,0 -6.7,0 C 8.9,22.3 8.4,21.5 8.7,20.7 9,20.2 9.4,20 9.9,20 c 2.2,0 4.5,0 6.7,0 z"
   id="path11"
   inkscape:connector-curvature="0"
   style="fill:#e1ba36" />
		</g>
	</g>
</g>
</svg>