<?xml version="1.0" encoding="UTF-8" standalone="no"?>
<svg
   xmlns:dc="http://purl.org/dc/elements/1.1/"
   xmlns:cc="http://creativecommons.org/ns#"
   xmlns:rdf="http://www.w3.org/1999/02/22-rdf-syntax-ns#"
   xmlns:svg="http://www.w3.org/2000/svg"
   xmlns="http://www.w3.org/2000/svg"
   xmlns:sodipodi="http://sodipodi.sourceforge.net/DTD/sodipodi-0.dtd"
   xmlns:inkscape="http://www.inkscape.org/namespaces/inkscape"
   width="19"
   height="16"
   viewBox="0 0 19 16"
   fill="none"
   version="1.1"
   id="svg4"
   sodipodi:docname="love-shape6.svg"
   inkscape:version="0.92.4 (5da689c313, 2019-01-14)">
  <metadata
     id="metadata10">
    <rdf:RDF>
      <cc:Work
         rdf:about="">
        <dc:format>image/svg+xml</dc:format>
        <dc:type
           rdf:resource="http://purl.org/dc/dcmitype/StillImage" />
      </cc:Work>
    </rdf:RDF>
  </metadata>
  <defs
     id="defs8">
    <style
       id="style7">.e{fill:#1c7aa3;}</style>
  </defs>
  <sodipodi:namedview
     pagecolor="#ffffff"
     bordercolor="#666666"
     borderopacity="1"
     objecttolerance="10"
     gridtolerance="10"
     guidetolerance="10"
     inkscape:pageopacity="0"
     inkscape:pageshadow="2"
     inkscape:window-width="2560"
     inkscape:window-height="1057"
     id="namedview6"
     showgrid="false"
     inkscape:zoom="20.85965"
     inkscape:cx="13.618764"
     inkscape:cy="7.3778783"
     inkscape:window-x="-8"
     inkscape:window-y="-8"
     inkscape:window-maximized="1"
     inkscape:current-layer="svg4" />
  <g
     id="g29"
     transform="matrix(0.1564507,0,0,0.1564507,2.3603725,1.1693626)">
    <g
       id="a" />
    <g
       id="b">
      <g
         id="c">
        <g
           id="d">
          <polygon
             id="polygon12"
             points="0,21.44 22.82,0 45.63,21.44 45.63,21.44 46.13,20.97 53.74,13.82 53.41,13.67 53.08,13.51 52.77,13.32 52.48,13.11 52.21,12.88 51.95,12.64 51.71,12.38 51.49,12.1 51.29,11.81 51.12,11.5 50.97,11.18 50.85,10.85 50.75,10.51 50.67,10.16 50.63,9.8 50.62,9.43 50.62,9.18 50.64,8.94 50.67,8.7 50.72,8.47 50.78,8.24 50.84,8.02 50.92,7.8 51.01,7.58 51.11,7.37 51.22,7.17 51.35,6.97 51.48,6.78 51.62,6.59 51.77,6.41 51.93,6.24 52.09,6.07 52.27,5.92 52.46,5.76 52.64,5.62 52.84,5.49 53.05,5.37 53.26,5.26 53.48,5.15 53.7,5.05 53.93,4.97 54.16,4.89 54.4,4.83 54.65,4.78 54.9,4.74 55.15,4.71 55.41,4.69 55.67,4.68 56.06,4.7 56.44,4.74 56.81,4.81 57.18,4.9 57.53,5.02 57.87,5.16 58.2,5.32 58.51,5.5 58.8,5.71 59.08,5.93 59.34,6.17 59.59,6.44 59.81,6.71 60.01,7 60.18,7.3 60.34,7.62 68.45,0 91.26,21.44 91.27,21.44 91.27,44.43 91.26,44.43 91.26,44.44 68.45,65.88 45.63,87.32 45.63,87.31 22.82,65.88 0,44.44 "
             class="e"
             style="fill:#1c7aa3" />
        </g>
      </g>
    </g>
  </g>
</svg>
