<?xml version="1.0" encoding="UTF-8" standalone="no"?>
<svg
   xmlns:dc="http://purl.org/dc/elements/1.1/"
   xmlns:cc="http://creativecommons.org/ns#"
   xmlns:rdf="http://www.w3.org/1999/02/22-rdf-syntax-ns#"
   xmlns:svg="http://www.w3.org/2000/svg"
   xmlns="http://www.w3.org/2000/svg"
   xmlns:sodipodi="http://sodipodi.sourceforge.net/DTD/sodipodi-0.dtd"
   xmlns:inkscape="http://www.inkscape.org/namespaces/inkscape"
   width="527"
   height="1068"
   viewBox="0 0 527 1068"
   fill="none"
   version="1.1"
   id="svg4"
   sodipodi:docname="testi-shape3.svg"
   inkscape:version="0.92.4 (5da689c313, 2019-01-14)">
  <metadata
     id="metadata10">
    <rdf:RDF>
      <cc:Work
         rdf:about="">
        <dc:format>image/svg+xml</dc:format>
        <dc:type
           rdf:resource="http://purl.org/dc/dcmitype/StillImage" />
      </cc:Work>
    </rdf:RDF>
  </metadata>
  <defs
     id="defs8" />
  <sodipodi:namedview
     pagecolor="#ffffff"
     bordercolor="#666666"
     borderopacity="1"
     objecttolerance="10"
     gridtolerance="10"
     guidetolerance="10"
     inkscape:pageopacity="0"
     inkscape:pageshadow="2"
     inkscape:window-width="2560"
     inkscape:window-height="1057"
     id="namedview6"
     showgrid="false"
     inkscape:zoom="0.44194757"
     inkscape:cx="561.94589"
     inkscape:cy="529.42886"
     inkscape:window-x="-8"
     inkscape:window-y="-8"
     inkscape:window-maximized="1"
     inkscape:current-layer="svg4" />
  <style
     id="style12"
     type="text/css">
	.st0{fill:#D1A752;}
</style>
  <g
     id="g20"
     transform="matrix(0.49948521,0,0,0.49948521,-237.1355,59.279753)">
	<polygon
   id="polygon14"
   points="1000.2,1244.1 1000.2,1244.1 993.7,1250.6 993.7,1250.6 993.6,1250.7 837.5,1406.8 980.5,1549.8 987.1,1543.2 850.7,1406.8 987,1270.4 1000.2,1257.3 1000.2,1257.3 1000.8,1256.7 1006.9,1250.7 1020,1237.5 1163,1094.6 1020.1,951.7 1013.5,958.2 1149.8,1094.6 1013.4,1230.9 1000.3,1244.1 "
   class="st0"
   style="fill:#d1a752" />

	<path
   id="path16"
   d="M 1428.5,321.3 1212.8,118.7 1000.3,318.4 c -0.5,-0.5 -0.9,-0.9 -1.5,-1.4 l -65.9,-61.9 c 12.7,-6.9 21.6,-19 24.5,-33.5 3.3,-16.1 -2.1,-32.4 -14.3,-43.4 -11.7,-11.6 -29.4,-16.6 -47.1,-12.9 -14.6,2.9 -27,11.4 -34.1,23.1 l -74.2,-69.7 -217.1,204 -0.1,2 0.1,180.8 c 0,31.2 0,36.7 2.5,37.8 L 980,925.8 986.5,919.3 579.9,537 579.8,326.9 787.7,131.6 l 77.2,72.6 2.6,-6.1 c 5,-11.9 16.4,-20.7 30.4,-23.5 14.6,-2.9 29.2,1 38.9,10.5 9.9,9.1 14.1,21.8 11.5,34.9 -2.7,13.7 -12.1,24.8 -25.1,29.5 l -7.2,2.5 80.5,75.6 2.4,4.8 213.9,-201 207.9,195.3 V 537 l -583.1,557.6 143,142.9 6.5,-6.5 L 850.7,1094.6 1430,541.1 V 322.7 Z"
   class="st0"
   inkscape:connector-curvature="0"
   style="fill:#d1a752" />

	<polygon
   id="polygon18"
   points="1149.8,1406.8 999.4,1557.1 993.6,1562.9 993.7,1562.9 993.6,1562.9 993.7,1562.9 980.4,1576.2 980.4,1576.2 837.5,1719.1 993.7,1875.2 993.6,1875.2 1000.3,1881.8 1163,1719.1 1020,1576.2 1013.4,1582.8 1149.8,1719.1 1013.4,1855.4 1000.3,1868.6 1000.2,1868.6 850.7,1719.1 987,1582.7 1000.3,1569.5 1163,1406.8 1020,1263.8 1013.5,1270.4 "
   class="st0"
   style="fill:#d1a752" />

</g>
</svg>
